/vscmnt/brussel_pixiu_data/_data_brussel/112/vsc11236/PredSimResults/SUBJ04mtu3D/worker9.mot
version=1
nRows=11
nColumns=50
inDegrees=yes
endheader
                time	         pelvis_tilt	         pelvis_list	     pelvis_rotation	           pelvis_tx	           pelvis_ty	           pelvis_tz	       hip_flexion_r	     hip_adduction_r	      hip_rotation_r	        knee_angle_r	       ankle_angle_r	         mtp_angle_r	       hip_flexion_l	     hip_adduction_l	      hip_rotation_l	        knee_angle_l	       ankle_angle_l	         mtp_angle_l	    lumbar_extension	      lumbar_bending	     lumbar_rotation	 ercspn_r/activation	 intobl_r/activation	 extobl_r/activation	    abd_r/activation	    add_r/activation	hamstrings_r/activation	bifemsh_r/activation	glut_max_r/activation	iliopsoas_r/activation	rect_fem_r/activation	  vasti_r/activation	gastroc_r/activation	 soleus_r/activation	tib_ant_r/activation	 ercspn_l/activation	 intobl_l/activation	 extobl_l/activation	    abd_l/activation	    add_l/activation	hamstrings_l/activation	bifemsh_l/activation	glut_max_l/activation	iliopsoas_l/activation	rect_fem_l/activation	  vasti_l/activation	gastroc_l/activation	 soleus_l/activation	tib_ant_l/activation	
          0.67822171	         -2.98818975	         -1.04602449	         -8.27440803	          0.63752841	          0.88074788	          0.01160021	        -12.66360410	          0.06151067	         -8.42710268	         -7.74931355	         10.35881941	         24.53732366	         29.25978685	         -3.99596020	         -9.22760291	         -9.03679325	          5.63394118	          0.23322262	        -13.96232053	          4.18816057	          7.25763659	          0.02090191	          0.00999999	          0.00999999	          0.05106614	          0.00999999	          0.02238959	          0.13840508	          0.01605138	          0.00999999	          0.00999999	          0.00999999	          0.34793703	          0.21709708	          0.00999999	          0.02302861	          0.22288219	          0.02018469	          0.01268535	          0.25508409	          0.07817497	          0.07831801	          0.02168967	          0.14280334	          0.02259780	          0.01111041	          0.01843102	          0.01827342	          0.29251181	
          0.69178615	         -3.06387558	         -1.05411721	         -8.05134280	          0.65380364	          0.87860368	          0.01102876	        -13.35787287	         -0.06718037	         -9.08175874	         -8.35632763	          9.92454930	         25.96132856	         29.18680356	         -3.90789809	         -9.38052783	        -10.62196302	          5.32497298	          0.22349580	        -13.46392126	          3.58561207	          7.31954239	          0.03074196	          0.00999999	          0.00999999	          0.04165013	          0.00999999	          0.01826121	          0.11288478	          0.01309169	          0.00999999	          0.00999999	          0.00999999	          0.32236228	          0.20848054	          0.00999999	          0.01878240	          0.21646669	          0.01646287	          0.03095266	          0.20804952	          0.07356416	          0.06387707	          0.05399313	          0.11647205	          0.01843103	          0.00999999	          0.01503256	          0.01490402	          0.32622064	
          0.70535058	         -3.12442564	         -1.00822582	         -7.77369797	          0.67037362	          0.87675534	          0.01037162	        -13.93253299	         -0.26953983	         -9.77169244	         -9.23073522	          9.38208611	         27.42197522	         29.04916958	         -3.78626207	         -9.56247809	        -12.05984137	          4.81539679	          0.21289050	        -12.94276103	          2.89947958	          7.35094749	          0.04702389	          0.00999999	          0.00999999	          0.03397033	          0.00999999	          0.01489405	          0.09207012	          0.01067773	          0.01503256	          0.00999999	          0.00999999	          0.29385594	          0.19458605	          0.00999999	          0.02790274	          0.17655273	          0.01342730	          0.05588447	          0.20810741	          0.07174455	          0.05209887	          0.06248625	          0.09499594	          0.01503256	          0.04989367	          0.01226073	          0.01215589	          0.35369871	
          0.71891501	         -3.17026156	         -0.92405623	         -7.44343656	          0.68708602	          0.87539570	          0.00960279	        -14.31495165	         -0.54278087	        -10.49766576	        -10.48054610	          8.69136152	         28.91267466	         28.85339874	         -3.62821900	         -9.82474921	        -13.40996979	          4.31803165	          0.19113735	        -12.42147371	          2.15473746	          7.34942859	          0.05585303	          0.00999999	          0.00999999	          0.02770659	          0.00999999	          0.01214776	          0.07509345	          0.00999999	          0.01226073	          0.00999999	          0.00999999	          0.23967229	          0.17887486	          0.00999999	          0.02310466	          0.14399844	          0.01095146	          0.07772681	          0.20499996	          0.06928056	          0.04249244	          0.05096451	          0.07747979	          0.01226073	          0.10007893	          0.00999999	          0.00999999	          0.38227080	
          0.73247945	         -3.20188651	         -0.79704588	         -7.07511044	          0.70384623	          0.87464425	          0.00872341	        -14.45608232	         -0.90764042	        -11.25075598	        -12.17472088	          7.84171906	         30.37407955	         28.54152783	         -3.41724131	        -10.14010026	        -14.60922052	          4.00414059	          0.17016049	        -11.91094516	          1.35275355	          7.31660597	          0.07665589	          0.00999999	          0.00999999	          0.02259781	          0.00999999	          0.01594103	          0.06124709	          0.00999999	          0.00999999	          0.00999999	          0.01625062	          0.19547948	          0.14987601	          0.00999999	          0.01884442	          0.11744679	          0.00999999	          0.10678567	          0.18370066	          0.07038790	          0.03465732	          0.04574963	          0.06319341	          0.00999999	          0.13805879	          0.00999999	          0.00999999	          0.39046682	
          0.74604388	         -3.22066482	         -0.62771309	         -6.68182681	          0.72052761	          0.87459106	          0.00774533	        -14.33379189	         -1.37509517	        -12.02199072	        -14.32593151	          6.82125497	         31.69772720	         28.09754502	         -3.13684214	        -10.43117660	        -15.61563518	          3.87909205	          0.15226948	        -11.42417760	          0.49923217	          7.25640705	          0.09849876	          0.00999999	          0.00999999	          0.01843104	          0.00999999	          0.07118651	          0.04995383	          0.01385009	          0.00999999	          0.00999999	          0.01843103	          0.15943532	          0.12224060	          0.00999999	          0.01536973	          0.09579095	          0.00999999	          0.13207629	          0.16723628	          0.06879655	          0.02826691	          0.04014743	          0.05154127	          0.00999999	          0.16443889	          0.00999999	          0.00999999	          0.38412074	
          0.75960832	         -3.22780699	         -0.42407157	         -6.27729109	          0.73699912	          0.87526669	          0.00668881	        -13.92739325	         -1.94908101	        -12.80228762	        -16.94543115	          5.62809001	         32.75509344	         27.53043728	         -2.78467495	        -10.63086921	        -16.42345525	          3.91424188	          0.14009815	        -10.97478135	         -0.39246898	          7.17379367	          0.09982062	          0.02776586	          0.00999999	          0.01503257	          0.03672524	          0.07255561	          0.04074292	          0.01129629	          0.00999999	          0.00999999	          0.01503256	          0.13003728	          0.09970084	          0.00999999	          0.01253573	          0.07812820	          0.00999999	          0.14290731	          0.16760806	          0.07046928	          0.02305482	          0.03274470	          0.04203765	          0.00999999	          0.18033300	          0.00999999	          0.00999999	          0.37139451	
          0.77317275	         -3.22416546	         -0.21495232	         -5.87167308	          0.75316265	          0.87660677	          0.00556394	        -13.20993836	         -2.61609914	        -13.57924741	        -20.06070459	          4.26743245	         33.40922726	         26.84134819	         -2.39084863	        -10.73634912	        -17.01948204	          4.06628806	          0.13585972	        -10.57619804	         -1.28294419	          7.06590580	          0.10129750	          0.04901187	          0.00999999	          0.01226073	          0.02995353	          0.08642835	          0.03323039	          0.00999999	          0.00999999	          0.00999999	          0.01226073	          0.10605990	          0.08131715	          0.00999999	          0.01503256	          0.06372226	          0.00999999	          0.14802690	          0.15647594	          0.07341299	          0.01880378	          0.02670696	          0.03428639	          0.00999999	          0.18751015	          0.00999999	          0.00999999	          0.34939072	
          0.78673719	         -3.20980338	         -0.03471455	         -5.47222549	          0.76895976	          0.87850322	          0.00438010	        -12.16476495	         -3.36090026	        -14.35630969	        -23.71327637	          2.88396612	         33.28978216	         26.03182756	         -1.99708442	        -10.76827025	        -17.40269058	          4.32290230	          0.14524716	        -10.23727772	         -2.12666857	          6.92692411	          0.09445924	          0.05245602	          0.00999999	          0.01000000	          0.10304285	          0.07049200	          0.02710309	          0.00999999	          0.00999999	          0.00999999	          0.00999999	          0.08650368	          0.06632321	          0.02685255	          0.01226073	          0.05197261	          0.00999999	          0.15055030	          0.15801551	          0.07649424	          0.01533658	          0.02797997	          0.02796438	          0.00999999	          0.18996272	          0.00999999	          0.00999999	          0.32180017	
          0.80030162	         -3.18448300	          0.08753979	         -5.07902490	          0.78434334	          0.88083610	          0.00316804	        -10.78928546	         -4.16845815	        -15.13413328	        -27.91712410	          1.58645702	         32.10155811	         25.10897560	         -1.64084396	        -10.74213047	        -17.57478501	          4.63350578	          0.19022073	         -9.96369799	         -2.89028053	          6.75006889	          0.08976255	          0.05238768	          0.00999999	          0.00999999	          0.18726161	          0.05749409	          0.02981403	          0.00999999	          0.00999999	          0.00999999	          0.00999999	          0.07055340	          0.05409397	          0.07556052	          0.00999999	          0.04238946	          0.00999999	          0.15075521	          0.13099172	          0.07923905	          0.01250869	          0.04257545	          0.02280807	          0.00999999	          0.18491432	          0.00999999	          0.00999999	          0.29640262	
          0.81386605	         -3.14741059	          0.12798318	         -4.68721429	          0.79927990	          0.88344235	          0.00197269	         -9.12876038	         -5.01041559	        -15.90524358	        -32.57303317	          0.44431534	         29.70680122	         24.09759646	         -1.35844104	        -10.67468692	        -17.56910349	          4.94338794	          0.27972343	         -9.75825019	         -3.54926589	          6.52834371	          0.09796834	          0.04689919	          0.02889108	          0.00999999	          0.23380108	          0.04689284	          0.02988052	          0.00999999	          0.00999999	          0.00999999	          0.00999999	          0.05754416	          0.04411967	          0.13239859	          0.00999999	          0.03457333	          0.00999999	          0.14520418	          0.10683836	          0.07934179	          0.01020223	          0.05172064	          0.01860252	          0.00999999	          0.18081166	          0.00999999	          0.00999999	          0.27387465	
